<mxfile host="app.diagrams.net" modified="2021-12-27T13:23:25.906Z" agent="5.0 (Windows NT 10.0; Win64; x64) AppleWebKit/537.36 (KHTML, like Gecko) Chrome/96.0.4664.110 Safari/537.36" etag="J0po0aig_EhxBYYF1bz7" version="16.1.0" type="github">
  <diagram id="rnjRjZLV6JYx7znacPWV" name="Page-1">
    <mxGraphModel dx="1102" dy="882" grid="1" gridSize="10" guides="1" tooltips="1" connect="1" arrows="1" fold="1" page="1" pageScale="1" pageWidth="850" pageHeight="1100" math="0" shadow="0">
      <root>
        <mxCell id="0" />
        <mxCell id="1" parent="0" />
        <mxCell id="_hgoxm6HUZLf0Ftnl9ra-1" value="" style="whiteSpace=wrap;html=1;aspect=fixed;fillColor=#d5e8d4;strokeColor=#82b366;" parent="1" vertex="1">
          <mxGeometry x="40" y="40" width="320" height="320" as="geometry" />
        </mxCell>
        <mxCell id="_hgoxm6HUZLf0Ftnl9ra-2" value="" style="whiteSpace=wrap;html=1;aspect=fixed;fillColor=#fff2cc;strokeColor=#d6b656;" parent="1" vertex="1">
          <mxGeometry x="120" y="120" width="230" height="230" as="geometry" />
        </mxCell>
        <mxCell id="_hgoxm6HUZLf0Ftnl9ra-3" value="" style="whiteSpace=wrap;html=1;aspect=fixed;fillColor=#f5f5f5;fontColor=#333333;strokeColor=#666666;" parent="1" vertex="1">
          <mxGeometry x="200" y="200" width="140" height="140" as="geometry" />
        </mxCell>
        <mxCell id="_hgoxm6HUZLf0Ftnl9ra-4" value="&lt;h1&gt;System&lt;/h1&gt;&lt;p&gt;Authentication, HTTP, GIT&lt;/p&gt;" style="text;html=1;strokeColor=none;fillColor=none;spacing=5;spacingTop=-20;whiteSpace=wrap;overflow=hidden;rounded=0;" parent="1" vertex="1">
          <mxGeometry x="40" y="40" width="90" height="80" as="geometry" />
        </mxCell>
        <mxCell id="_hgoxm6HUZLf0Ftnl9ra-6" value="&lt;h1&gt;Global&lt;/h1&gt;&lt;p&gt;User info, Editor&lt;/p&gt;" style="text;html=1;strokeColor=none;fillColor=none;spacing=5;spacingTop=-20;whiteSpace=wrap;overflow=hidden;rounded=0;" parent="1" vertex="1">
          <mxGeometry x="120" y="120" width="80" height="80" as="geometry" />
        </mxCell>
        <mxCell id="_hgoxm6HUZLf0Ftnl9ra-7" value="&lt;h1&gt;Local&lt;/h1&gt;&lt;p&gt;Remotes, Branches&lt;/p&gt;&lt;p&gt;&lt;br&gt;&lt;/p&gt;" style="text;html=1;strokeColor=none;fillColor=none;spacing=5;spacingTop=-20;whiteSpace=wrap;overflow=hidden;rounded=0;" parent="1" vertex="1">
          <mxGeometry x="200" y="200" width="90" height="80" as="geometry" />
        </mxCell>
        <mxCell id="viOX8zuwRgglMyXOAv5t-1" value="gitconfig" style="text;html=1;strokeColor=none;fillColor=none;align=center;verticalAlign=middle;whiteSpace=wrap;rounded=0;" parent="1" vertex="1">
          <mxGeometry x="300" y="40" width="60" height="30" as="geometry" />
        </mxCell>
        <mxCell id="viOX8zuwRgglMyXOAv5t-2" value=".gitconfig" style="text;html=1;strokeColor=none;fillColor=none;align=center;verticalAlign=middle;whiteSpace=wrap;rounded=0;" parent="1" vertex="1">
          <mxGeometry x="290" y="120" width="60" height="30" as="geometry" />
        </mxCell>
        <mxCell id="viOX8zuwRgglMyXOAv5t-3" value="config" style="text;html=1;strokeColor=none;fillColor=none;align=center;verticalAlign=middle;whiteSpace=wrap;rounded=0;" parent="1" vertex="1">
          <mxGeometry x="280" y="200" width="60" height="30" as="geometry" />
        </mxCell>
      </root>
    </mxGraphModel>
  </diagram>
</mxfile>
